<svg width="212" height="18" viewBox="0 0 212 18" fill="none" xmlns="http://www.w3.org/2000/svg">
<g clip-path="url(#clip0_2_49)">
<path d="M18.2594 5.14781C17.5736 4.33255 16.3073 4 13.8891 4H5.11076C2.63714 4 1.34943 4.354 0.666165 5.22196C0 6.06823 0 7.31514 0 9.04089V12.3302C0 15.6735 0.7904 17.371 5.11076 17.371H13.8891C15.9862 17.371 17.1483 17.0776 17.9001 16.3581C18.6711 15.6203 19 14.4157 19 12.3302V9.04089C19 7.22094 18.9485 5.96668 18.2594 5.14781ZM12.1981 11.1396L8.21186 13.2229C8.12275 13.2695 8.02529 13.2926 7.92796 13.2926C7.81776 13.2926 7.70781 13.2629 7.61042 13.2039C7.42704 13.0928 7.31506 12.8941 7.31506 12.6797V8.52656C7.31506 8.31254 7.42673 8.11397 7.60975 8.00279C7.79282 7.89162 8.02051 7.88402 8.21045 7.98269L12.1967 10.0525C12.3995 10.1578 12.5268 10.3672 12.5271 10.5956C12.5274 10.8242 12.4006 11.0339 12.1981 11.1396Z" fill="white"/>
</g>
<g clip-path="url(#clip1_2_49)">
<path d="M76.3652 0.0037452L74.0311 0C71.4087 0 69.714 1.73871 69.714 4.42982V6.47227H67.367C67.1642 6.47227 67 6.63668 67 6.83949V9.79876C67 10.0016 67.1644 10.1658 67.367 10.1658H69.714V17.633C69.714 17.8358 69.8782 18 70.081 18H73.1431C73.3459 18 73.5101 17.8356 73.5101 17.633V10.1658H76.2542C76.457 10.1658 76.6212 10.0016 76.6212 9.79876L76.6224 6.83949C76.6224 6.74211 76.5836 6.64886 76.5149 6.57994C76.4461 6.51103 76.3525 6.47227 76.2551 6.47227H73.5101V4.74086C73.5101 3.90868 73.7084 3.48622 74.7925 3.48622L76.3649 3.48566C76.5675 3.48566 76.7317 3.32124 76.7317 3.11863V0.370775C76.7317 0.168347 76.5677 0.00411972 76.3652 0.0037452Z" fill="white"/>
</g>
<g clip-path="url(#clip2_2_49)">
<path d="M143.731 4.73609C143.023 5.04068 142.315 5.2309 141.607 5.3073C142.407 4.82762 142.947 4.14995 143.229 3.27435C142.498 3.70827 141.717 4.00514 140.888 4.16511C140.157 3.38848 139.258 3 138.192 3C137.172 3 136.302 3.35972 135.582 4.0793C134.863 4.79885 134.503 5.6687 134.503 6.68896C134.503 6.96302 134.533 7.24485 134.594 7.53416C133.087 7.45803 131.672 7.07924 130.351 6.39777C129.03 5.71622 127.909 4.80822 126.988 3.67375C126.653 4.24468 126.485 4.86534 126.485 5.53537C126.485 6.16735 126.634 6.75372 126.931 7.29434C127.228 7.83487 127.627 8.27263 128.13 8.6077C127.536 8.58482 126.98 8.42869 126.462 8.13934V8.18502C126.462 9.07595 126.742 9.85815 127.302 10.5322C127.862 11.2062 128.568 11.6304 129.421 11.8056C129.101 11.8893 128.777 11.9312 128.45 11.9312C128.236 11.9312 128.004 11.9122 127.753 11.8744C127.989 12.6128 128.423 13.2198 129.055 13.696C129.687 14.1718 130.403 14.4171 131.202 14.4327C129.862 15.4833 128.336 16.0086 126.622 16.0086C126.295 16.0086 125.998 15.9937 125.731 15.9631C127.445 17.067 129.333 17.619 131.396 17.619C132.706 17.619 133.936 17.4117 135.085 16.9966C136.235 16.5818 137.217 16.0259 138.032 15.329C138.847 14.6324 139.549 13.831 140.139 12.9249C140.729 12.0188 141.169 11.0728 141.458 10.0868C141.748 9.10059 141.892 8.11286 141.892 7.12284C141.892 6.90962 141.889 6.7498 141.881 6.64315C142.604 6.11802 143.221 5.48212 143.731 4.73609Z" fill="white"/>
</g>
<g clip-path="url(#clip3_2_49)">
<path d="M211.894 16.3053C211.87 16.2531 211.847 16.2098 211.826 16.1751C211.479 15.5502 210.816 14.7831 209.837 13.8736L209.817 13.8528L209.806 13.8426L209.796 13.8321H209.785C209.341 13.4086 209.06 13.1239 208.942 12.9781C208.726 12.7004 208.678 12.4193 208.796 12.1345C208.879 11.9193 209.192 11.4649 209.733 10.7706C210.018 10.4026 210.243 10.1077 210.41 9.88548C211.611 8.28871 212.132 7.26835 211.972 6.82401L211.91 6.72017C211.868 6.65766 211.761 6.60047 211.587 6.54831C211.413 6.49627 211.191 6.48766 210.921 6.52235L207.922 6.54306C207.873 6.52585 207.804 6.52745 207.713 6.54831C207.623 6.56918 207.578 6.57964 207.578 6.57964L207.526 6.60572L207.484 6.63705C207.45 6.65777 207.411 6.6942 207.37 6.74629C207.328 6.79819 207.294 6.8591 207.266 6.9285C206.939 7.7685 206.568 8.54949 206.151 9.27143C205.895 9.70191 205.659 10.075 205.443 10.3909C205.228 10.7067 205.048 10.9393 204.902 11.0884C204.756 11.2377 204.624 11.3573 204.506 11.4477C204.388 11.5381 204.298 11.5762 204.236 11.5623C204.173 11.5483 204.114 11.5344 204.058 11.5206C203.961 11.4581 203.883 11.3731 203.824 11.2655C203.765 11.1579 203.725 11.0224 203.704 10.8593C203.684 10.696 203.671 10.5556 203.668 10.4376C203.665 10.3197 203.666 10.1529 203.673 9.93767C203.68 9.72237 203.684 9.5767 203.684 9.50033C203.684 9.23649 203.689 8.95014 203.699 8.64122C203.71 8.33229 203.718 8.08753 203.725 7.90721C203.732 7.7267 203.736 7.53574 203.736 7.33441C203.736 7.13308 203.723 6.97519 203.699 6.86059C203.675 6.74614 203.639 6.63505 203.59 6.52734C203.541 6.41975 203.47 6.33652 203.377 6.27743C203.283 6.21842 203.166 6.17159 203.028 6.13679C202.66 6.05353 202.191 6.00848 201.622 6.00148C200.331 5.98762 199.501 6.071 199.133 6.2515C198.987 6.32776 198.855 6.43197 198.737 6.56378C198.612 6.71656 198.595 6.79994 198.685 6.81365C199.102 6.87606 199.397 7.02534 199.57 7.26135L199.633 7.38642C199.682 7.47665 199.73 7.6364 199.779 7.86545C199.827 8.09449 199.859 8.34787 199.872 8.62542C199.907 9.13228 199.907 9.56616 199.872 9.92709C199.838 10.2882 199.805 10.5693 199.773 10.7706C199.742 10.9719 199.695 11.1351 199.633 11.26C199.57 11.3849 199.529 11.4613 199.508 11.489C199.487 11.5167 199.47 11.5342 199.456 11.5411C199.366 11.5757 199.272 11.5933 199.175 11.5933C199.077 11.5933 198.959 11.5446 198.821 11.4474C198.682 11.3501 198.538 11.2166 198.389 11.0465C198.239 10.8763 198.071 10.6386 197.883 10.3331C197.696 10.0277 197.502 9.66675 197.3 9.25024L197.134 8.94817C197.03 8.75384 196.887 8.47089 196.707 8.09956C196.526 7.72809 196.367 7.36876 196.228 7.02165C196.172 6.87587 196.089 6.76489 195.978 6.68852L195.926 6.65719C195.891 6.62947 195.836 6.60003 195.759 6.56867C195.683 6.53734 195.603 6.51487 195.52 6.50104L192.667 6.52176C192.375 6.52176 192.177 6.58781 192.073 6.71974L192.031 6.78214C192.011 6.8169 192 6.87241 192 6.94882C192 7.02519 192.021 7.11893 192.063 7.22991C192.479 8.20884 192.932 9.15293 193.421 10.0623C193.911 10.9717 194.336 11.7043 194.697 12.2593C195.058 12.8148 195.426 13.339 195.801 13.8317C196.176 14.3247 196.424 14.6405 196.545 14.7793C196.667 14.9184 196.762 15.0223 196.832 15.0917L197.092 15.3416C197.259 15.5082 197.503 15.7078 197.826 15.9403C198.149 16.173 198.506 16.402 198.899 16.6278C199.291 16.8533 199.747 17.0372 200.268 17.1795C200.789 17.3219 201.295 17.3791 201.788 17.3515H202.986C203.229 17.3305 203.413 17.2542 203.538 17.1224L203.579 17.0702C203.607 17.0287 203.633 16.9644 203.657 16.8777C203.682 16.791 203.694 16.6954 203.694 16.5914C203.687 16.2929 203.709 16.0239 203.761 15.7845C203.813 15.5451 203.872 15.3646 203.939 15.243C204.005 15.1215 204.079 15.0191 204.162 14.936C204.246 14.8527 204.305 14.8023 204.34 14.7849C204.374 14.7674 204.402 14.7556 204.423 14.7485C204.589 14.693 204.785 14.7467 205.011 14.91C205.237 15.0731 205.449 15.2746 205.646 15.514C205.844 15.7536 206.082 16.0225 206.36 16.3209C206.638 16.6195 206.88 16.8414 207.089 16.9874L207.297 17.1124C207.436 17.1957 207.616 17.2721 207.839 17.3415C208.06 17.4109 208.255 17.4283 208.421 17.3936L211.087 17.352C211.351 17.352 211.556 17.3083 211.701 17.2217C211.847 17.1349 211.934 17.0393 211.962 16.9354C211.99 16.8313 211.991 16.7132 211.967 16.5811C211.942 16.4494 211.918 16.3573 211.894 16.3053Z" fill="white"/>
</g>
<defs>
<clipPath id="clip0_2_49">
<rect width="19" height="14" fill="white" transform="translate(0 4)"/>
</clipPath>
<clipPath id="clip1_2_49">
<rect width="10" height="18" fill="white" transform="translate(67)"/>
</clipPath>
<clipPath id="clip2_2_49">
<rect width="19" height="15" fill="white" transform="translate(125 3)"/>
</clipPath>
<clipPath id="clip3_2_49">
<rect width="20" height="12" fill="white" transform="translate(192 6)"/>
</clipPath>
</defs>
</svg>
